<mxfile host="app.diagrams.net" agent="Mozilla/5.0 (Windows NT 10.0; Win64; x64) AppleWebKit/537.36 (KHTML, like Gecko) Chrome/140.0.0.0 Safari/537.36" version="28.2.3">
  <diagram name="หน้า-1" id="5sbnwdV5HVE4L9TnuIEV">
    <mxGraphModel dx="1278" dy="1411" grid="1" gridSize="10" guides="1" tooltips="1" connect="1" arrows="1" fold="1" page="1" pageScale="1" pageWidth="827" pageHeight="1169" background="#ffffff" math="0" shadow="0" adaptiveColors="none">
      <root>
        <mxCell id="0" />
        <mxCell id="1" parent="0" />
        <mxCell id="1Nd6ax76EJ901uyZsJ-i-76" style="edgeStyle=orthogonalEdgeStyle;rounded=0;orthogonalLoop=1;jettySize=auto;html=1;entryX=0.5;entryY=0;entryDx=0;entryDy=0;" parent="1" source="1Nd6ax76EJ901uyZsJ-i-1" target="1Nd6ax76EJ901uyZsJ-i-75" edge="1">
          <mxGeometry relative="1" as="geometry" />
        </mxCell>
        <mxCell id="1Nd6ax76EJ901uyZsJ-i-1" value="Start" style="ellipse;whiteSpace=wrap;html=1;" parent="1" vertex="1">
          <mxGeometry x="139" width="120" height="40" as="geometry" />
        </mxCell>
        <mxCell id="1Nd6ax76EJ901uyZsJ-i-25" value="" style="edgeStyle=orthogonalEdgeStyle;rounded=0;orthogonalLoop=1;jettySize=auto;html=1;" parent="1" source="1Nd6ax76EJ901uyZsJ-i-7" target="1Nd6ax76EJ901uyZsJ-i-15" edge="1">
          <mxGeometry relative="1" as="geometry" />
        </mxCell>
        <mxCell id="1Nd6ax76EJ901uyZsJ-i-82" style="edgeStyle=orthogonalEdgeStyle;rounded=0;orthogonalLoop=1;jettySize=auto;html=1;entryX=0.5;entryY=0;entryDx=0;entryDy=0;" parent="1" source="1Nd6ax76EJ901uyZsJ-i-7" target="1Nd6ax76EJ901uyZsJ-i-29" edge="1">
          <mxGeometry relative="1" as="geometry" />
        </mxCell>
        <mxCell id="1Nd6ax76EJ901uyZsJ-i-7" value="ผู้ใช้กรอกเลขคี่ใช่หรือไม่" style="rhombus;whiteSpace=wrap;html=1;" parent="1" vertex="1">
          <mxGeometry x="114" y="360" width="170" height="80" as="geometry" />
        </mxCell>
        <mxCell id="Nh9t3Uf7HD9DCq_Oj0VO-5" value="" style="edgeStyle=orthogonalEdgeStyle;rounded=0;orthogonalLoop=1;jettySize=auto;html=1;" edge="1" parent="1" source="1Nd6ax76EJ901uyZsJ-i-15" target="Nh9t3Uf7HD9DCq_Oj0VO-4">
          <mxGeometry relative="1" as="geometry" />
        </mxCell>
        <mxCell id="1Nd6ax76EJ901uyZsJ-i-15" value="&lt;div style=&quot;text-align: start;&quot;&gt;i = 0&lt;/div&gt;" style="rounded=0;whiteSpace=wrap;html=1;" parent="1" vertex="1">
          <mxGeometry x="139" y="520" width="120" height="40" as="geometry" />
        </mxCell>
        <mxCell id="1Nd6ax76EJ901uyZsJ-i-45" style="edgeStyle=orthogonalEdgeStyle;rounded=0;orthogonalLoop=1;jettySize=auto;html=1;entryX=0.5;entryY=0;entryDx=0;entryDy=0;" parent="1" source="1Nd6ax76EJ901uyZsJ-i-16" edge="1" target="Nh9t3Uf7HD9DCq_Oj0VO-45">
          <mxGeometry relative="1" as="geometry">
            <mxPoint x="354" y="1090" as="targetPoint" />
            <Array as="points">
              <mxPoint x="354" y="670" />
            </Array>
          </mxGeometry>
        </mxCell>
        <mxCell id="Nh9t3Uf7HD9DCq_Oj0VO-12" value="" style="edgeStyle=orthogonalEdgeStyle;rounded=0;orthogonalLoop=1;jettySize=auto;html=1;" edge="1" parent="1" source="1Nd6ax76EJ901uyZsJ-i-16" target="Nh9t3Uf7HD9DCq_Oj0VO-11">
          <mxGeometry relative="1" as="geometry" />
        </mxCell>
        <mxCell id="1Nd6ax76EJ901uyZsJ-i-16" value="i &amp;lt;= N" style="rhombus;whiteSpace=wrap;html=1;" parent="1" vertex="1">
          <mxGeometry x="129" y="640" width="140" height="60" as="geometry" />
        </mxCell>
        <mxCell id="Nh9t3Uf7HD9DCq_Oj0VO-20" style="edgeStyle=orthogonalEdgeStyle;rounded=0;orthogonalLoop=1;jettySize=auto;html=1;entryX=0.5;entryY=0;entryDx=0;entryDy=0;" edge="1" parent="1" source="1Nd6ax76EJ901uyZsJ-i-18" target="Nh9t3Uf7HD9DCq_Oj0VO-16">
          <mxGeometry relative="1" as="geometry" />
        </mxCell>
        <mxCell id="1Nd6ax76EJ901uyZsJ-i-18" value="แสดงตัวเลข" style="shape=parallelogram;perimeter=parallelogramPerimeter;whiteSpace=wrap;html=1;fixedSize=1;" parent="1" vertex="1">
          <mxGeometry x="139" y="840" width="120" height="40" as="geometry" />
        </mxCell>
        <mxCell id="Nh9t3Uf7HD9DCq_Oj0VO-15" style="edgeStyle=orthogonalEdgeStyle;rounded=0;orthogonalLoop=1;jettySize=auto;html=1;entryX=0;entryY=0.5;entryDx=0;entryDy=0;" edge="1" parent="1" source="1Nd6ax76EJ901uyZsJ-i-19" target="Nh9t3Uf7HD9DCq_Oj0VO-4">
          <mxGeometry relative="1" as="geometry">
            <Array as="points">
              <mxPoint x="199" y="1040" />
              <mxPoint x="80" y="1040" />
              <mxPoint x="80" y="595" />
            </Array>
          </mxGeometry>
        </mxCell>
        <mxCell id="1Nd6ax76EJ901uyZsJ-i-19" value="&lt;div style=&quot;text-align: start;&quot;&gt;i + 1&lt;/div&gt;" style="rounded=0;whiteSpace=wrap;html=1;" parent="1" vertex="1">
          <mxGeometry x="139" y="960" width="120" height="40" as="geometry" />
        </mxCell>
        <mxCell id="1Nd6ax76EJ901uyZsJ-i-27" value="True" style="text;html=1;align=center;verticalAlign=middle;whiteSpace=wrap;rounded=0;" parent="1" vertex="1">
          <mxGeometry x="199" y="440" width="60" height="30" as="geometry" />
        </mxCell>
        <mxCell id="1Nd6ax76EJ901uyZsJ-i-28" value="False" style="text;html=1;align=center;verticalAlign=middle;whiteSpace=wrap;rounded=0;" parent="1" vertex="1">
          <mxGeometry x="284" y="370" width="60" height="30" as="geometry" />
        </mxCell>
        <mxCell id="Nh9t3Uf7HD9DCq_Oj0VO-36" style="edgeStyle=orthogonalEdgeStyle;rounded=0;orthogonalLoop=1;jettySize=auto;html=1;entryX=0.5;entryY=0;entryDx=0;entryDy=0;" edge="1" parent="1" source="1Nd6ax76EJ901uyZsJ-i-29" target="Nh9t3Uf7HD9DCq_Oj0VO-24">
          <mxGeometry relative="1" as="geometry" />
        </mxCell>
        <mxCell id="1Nd6ax76EJ901uyZsJ-i-29" value="&lt;div style=&quot;text-align: start;&quot;&gt;i = N&lt;/div&gt;" style="rounded=0;whiteSpace=wrap;html=1;" parent="1" vertex="1">
          <mxGeometry x="500" y="520" width="120" height="40" as="geometry" />
        </mxCell>
        <mxCell id="Nh9t3Uf7HD9DCq_Oj0VO-33" style="edgeStyle=orthogonalEdgeStyle;rounded=0;orthogonalLoop=1;jettySize=auto;html=1;entryX=0.5;entryY=0;entryDx=0;entryDy=0;" edge="1" parent="1" source="1Nd6ax76EJ901uyZsJ-i-31" target="Nh9t3Uf7HD9DCq_Oj0VO-31">
          <mxGeometry relative="1" as="geometry" />
        </mxCell>
        <mxCell id="1Nd6ax76EJ901uyZsJ-i-31" value="แสดงตัวเลข" style="shape=parallelogram;perimeter=parallelogramPerimeter;whiteSpace=wrap;html=1;fixedSize=1;" parent="1" vertex="1">
          <mxGeometry x="500" y="840" width="120" height="40" as="geometry" />
        </mxCell>
        <mxCell id="1Nd6ax76EJ901uyZsJ-i-52" value="" style="edgeStyle=orthogonalEdgeStyle;rounded=0;orthogonalLoop=1;jettySize=auto;html=1;" parent="1" source="1Nd6ax76EJ901uyZsJ-i-32" target="1Nd6ax76EJ901uyZsJ-i-7" edge="1">
          <mxGeometry relative="1" as="geometry" />
        </mxCell>
        <mxCell id="1Nd6ax76EJ901uyZsJ-i-55" value="" style="edgeStyle=orthogonalEdgeStyle;rounded=0;orthogonalLoop=1;jettySize=auto;html=1;" parent="1" source="1Nd6ax76EJ901uyZsJ-i-32" target="1Nd6ax76EJ901uyZsJ-i-54" edge="1">
          <mxGeometry relative="1" as="geometry" />
        </mxCell>
        <mxCell id="1Nd6ax76EJ901uyZsJ-i-32" value="ผู้ใช้กรอกตัวเลขใช่หรือไม่" style="rhombus;whiteSpace=wrap;html=1;" parent="1" vertex="1">
          <mxGeometry x="119" y="240" width="160" height="80" as="geometry" />
        </mxCell>
        <mxCell id="1Nd6ax76EJ901uyZsJ-i-39" value="End" style="ellipse;whiteSpace=wrap;html=1;" parent="1" vertex="1">
          <mxGeometry x="139" y="1120" width="120" height="40" as="geometry" />
        </mxCell>
        <mxCell id="1Nd6ax76EJ901uyZsJ-i-51" value="" style="edgeStyle=orthogonalEdgeStyle;rounded=0;orthogonalLoop=1;jettySize=auto;html=1;" parent="1" target="1Nd6ax76EJ901uyZsJ-i-32" edge="1">
          <mxGeometry relative="1" as="geometry">
            <mxPoint x="199" y="190" as="sourcePoint" />
          </mxGeometry>
        </mxCell>
        <mxCell id="Nh9t3Uf7HD9DCq_Oj0VO-53" style="edgeStyle=orthogonalEdgeStyle;rounded=0;orthogonalLoop=1;jettySize=auto;html=1;entryX=1;entryY=0.5;entryDx=0;entryDy=0;" edge="1" parent="1" source="1Nd6ax76EJ901uyZsJ-i-54" target="Nh9t3Uf7HD9DCq_Oj0VO-46">
          <mxGeometry relative="1" as="geometry">
            <mxPoint x="800" y="1080" as="targetPoint" />
            <Array as="points">
              <mxPoint x="800" y="280" />
              <mxPoint x="800" y="1075" />
            </Array>
          </mxGeometry>
        </mxCell>
        <mxCell id="1Nd6ax76EJ901uyZsJ-i-54" value="ให้กรอกแค่ตัวเลข" style="shape=parallelogram;perimeter=parallelogramPerimeter;whiteSpace=wrap;html=1;fixedSize=1;" parent="1" vertex="1">
          <mxGeometry x="359" y="260" width="120" height="40" as="geometry" />
        </mxCell>
        <mxCell id="Nh9t3Uf7HD9DCq_Oj0VO-39" style="edgeStyle=orthogonalEdgeStyle;rounded=0;orthogonalLoop=1;jettySize=auto;html=1;entryX=0;entryY=0.5;entryDx=0;entryDy=0;" edge="1" parent="1" source="1Nd6ax76EJ901uyZsJ-i-60" target="Nh9t3Uf7HD9DCq_Oj0VO-24">
          <mxGeometry relative="1" as="geometry">
            <Array as="points">
              <mxPoint x="560" y="1040" />
              <mxPoint x="440" y="1040" />
              <mxPoint x="440" y="595" />
            </Array>
          </mxGeometry>
        </mxCell>
        <mxCell id="1Nd6ax76EJ901uyZsJ-i-60" value="&lt;div style=&quot;text-align: start;&quot;&gt;i - 1&lt;/div&gt;" style="rounded=0;whiteSpace=wrap;html=1;" parent="1" vertex="1">
          <mxGeometry x="500" y="960" width="120" height="40" as="geometry" />
        </mxCell>
        <mxCell id="1Nd6ax76EJ901uyZsJ-i-78" style="edgeStyle=orthogonalEdgeStyle;rounded=0;orthogonalLoop=1;jettySize=auto;html=1;entryX=0.5;entryY=0;entryDx=0;entryDy=0;" parent="1" source="1Nd6ax76EJ901uyZsJ-i-75" target="1Nd6ax76EJ901uyZsJ-i-77" edge="1">
          <mxGeometry relative="1" as="geometry" />
        </mxCell>
        <mxCell id="1Nd6ax76EJ901uyZsJ-i-75" value="N=0" style="rounded=0;whiteSpace=wrap;html=1;" parent="1" vertex="1">
          <mxGeometry x="139" y="80" width="120" height="40" as="geometry" />
        </mxCell>
        <mxCell id="1Nd6ax76EJ901uyZsJ-i-77" value="รับค่าตัวเลขจากผู้ใช้" style="shape=parallelogram;perimeter=parallelogramPerimeter;whiteSpace=wrap;html=1;fixedSize=1;" parent="1" vertex="1">
          <mxGeometry x="124" y="160" width="150" height="40" as="geometry" />
        </mxCell>
        <mxCell id="1Nd6ax76EJ901uyZsJ-i-79" value="False" style="text;html=1;align=center;verticalAlign=middle;whiteSpace=wrap;rounded=0;" parent="1" vertex="1">
          <mxGeometry x="279" y="250" width="60" height="30" as="geometry" />
        </mxCell>
        <mxCell id="1Nd6ax76EJ901uyZsJ-i-80" value="True" style="text;html=1;align=center;verticalAlign=middle;whiteSpace=wrap;rounded=0;" parent="1" vertex="1">
          <mxGeometry x="199" y="310" width="60" height="30" as="geometry" />
        </mxCell>
        <mxCell id="1Nd6ax76EJ901uyZsJ-i-88" value="True" style="text;html=1;align=center;verticalAlign=middle;whiteSpace=wrap;rounded=0;" parent="1" vertex="1">
          <mxGeometry x="199" y="800" width="60" height="30" as="geometry" />
        </mxCell>
        <mxCell id="1Nd6ax76EJ901uyZsJ-i-89" value="True" style="text;html=1;align=center;verticalAlign=middle;whiteSpace=wrap;rounded=0;" parent="1" vertex="1">
          <mxGeometry x="560" y="810" width="60" height="30" as="geometry" />
        </mxCell>
        <mxCell id="1Nd6ax76EJ901uyZsJ-i-90" value="False" style="text;html=1;align=center;verticalAlign=middle;whiteSpace=wrap;rounded=0;" parent="1" vertex="1">
          <mxGeometry x="269" y="740" width="60" height="30" as="geometry" />
        </mxCell>
        <mxCell id="1Nd6ax76EJ901uyZsJ-i-91" value="False" style="text;html=1;align=center;verticalAlign=middle;whiteSpace=wrap;rounded=0;" parent="1" vertex="1">
          <mxGeometry x="630" y="750" width="60" height="30" as="geometry" />
        </mxCell>
        <mxCell id="1Nd6ax76EJ901uyZsJ-i-92" value="False" style="text;html=1;align=center;verticalAlign=middle;whiteSpace=wrap;rounded=0;" parent="1" vertex="1">
          <mxGeometry x="630" y="640" width="60" height="30" as="geometry" />
        </mxCell>
        <mxCell id="1Nd6ax76EJ901uyZsJ-i-93" value="False" style="text;html=1;align=center;verticalAlign=middle;whiteSpace=wrap;rounded=0;" parent="1" vertex="1">
          <mxGeometry x="263.5" y="640" width="60" height="30" as="geometry" />
        </mxCell>
        <mxCell id="1Nd6ax76EJ901uyZsJ-i-94" value="True" style="text;html=1;align=center;verticalAlign=middle;whiteSpace=wrap;rounded=0;" parent="1" vertex="1">
          <mxGeometry x="199" y="700" width="60" height="30" as="geometry" />
        </mxCell>
        <mxCell id="Nh9t3Uf7HD9DCq_Oj0VO-4" value="" style="ellipse;whiteSpace=wrap;html=1;aspect=fixed;" vertex="1" parent="1">
          <mxGeometry x="194" y="590" width="10" height="10" as="geometry" />
        </mxCell>
        <mxCell id="Nh9t3Uf7HD9DCq_Oj0VO-7" style="edgeStyle=orthogonalEdgeStyle;rounded=0;orthogonalLoop=1;jettySize=auto;html=1;entryX=0.5;entryY=0;entryDx=0;entryDy=0;" edge="1" parent="1" source="Nh9t3Uf7HD9DCq_Oj0VO-4" target="1Nd6ax76EJ901uyZsJ-i-16">
          <mxGeometry relative="1" as="geometry" />
        </mxCell>
        <mxCell id="Nh9t3Uf7HD9DCq_Oj0VO-13" value="" style="edgeStyle=orthogonalEdgeStyle;rounded=0;orthogonalLoop=1;jettySize=auto;html=1;" edge="1" parent="1" source="Nh9t3Uf7HD9DCq_Oj0VO-11" target="1Nd6ax76EJ901uyZsJ-i-18">
          <mxGeometry relative="1" as="geometry" />
        </mxCell>
        <mxCell id="Nh9t3Uf7HD9DCq_Oj0VO-21" style="edgeStyle=orthogonalEdgeStyle;rounded=0;orthogonalLoop=1;jettySize=auto;html=1;entryX=1;entryY=0.5;entryDx=0;entryDy=0;" edge="1" parent="1" source="Nh9t3Uf7HD9DCq_Oj0VO-11" target="Nh9t3Uf7HD9DCq_Oj0VO-16">
          <mxGeometry relative="1" as="geometry">
            <Array as="points">
              <mxPoint x="320" y="770" />
              <mxPoint x="320" y="915" />
            </Array>
          </mxGeometry>
        </mxCell>
        <mxCell id="Nh9t3Uf7HD9DCq_Oj0VO-11" value="i % 2 =1" style="rhombus;whiteSpace=wrap;html=1;" vertex="1" parent="1">
          <mxGeometry x="129" y="740" width="140" height="60" as="geometry" />
        </mxCell>
        <mxCell id="Nh9t3Uf7HD9DCq_Oj0VO-17" value="" style="edgeStyle=orthogonalEdgeStyle;rounded=0;orthogonalLoop=1;jettySize=auto;html=1;" edge="1" parent="1" source="Nh9t3Uf7HD9DCq_Oj0VO-16" target="1Nd6ax76EJ901uyZsJ-i-19">
          <mxGeometry relative="1" as="geometry" />
        </mxCell>
        <mxCell id="Nh9t3Uf7HD9DCq_Oj0VO-16" value="" style="ellipse;whiteSpace=wrap;html=1;aspect=fixed;" vertex="1" parent="1">
          <mxGeometry x="194" y="910" width="10" height="10" as="geometry" />
        </mxCell>
        <mxCell id="Nh9t3Uf7HD9DCq_Oj0VO-27" value="" style="edgeStyle=orthogonalEdgeStyle;rounded=0;orthogonalLoop=1;jettySize=auto;html=1;" edge="1" parent="1" source="Nh9t3Uf7HD9DCq_Oj0VO-22" target="Nh9t3Uf7HD9DCq_Oj0VO-26">
          <mxGeometry relative="1" as="geometry" />
        </mxCell>
        <mxCell id="Nh9t3Uf7HD9DCq_Oj0VO-50" style="edgeStyle=orthogonalEdgeStyle;rounded=0;orthogonalLoop=1;jettySize=auto;html=1;entryX=0.5;entryY=0;entryDx=0;entryDy=0;" edge="1" parent="1" source="Nh9t3Uf7HD9DCq_Oj0VO-22" target="Nh9t3Uf7HD9DCq_Oj0VO-46">
          <mxGeometry relative="1" as="geometry" />
        </mxCell>
        <mxCell id="Nh9t3Uf7HD9DCq_Oj0VO-22" value="i &amp;gt;= 0" style="rhombus;whiteSpace=wrap;html=1;" vertex="1" parent="1">
          <mxGeometry x="490" y="640" width="140" height="60" as="geometry" />
        </mxCell>
        <mxCell id="Nh9t3Uf7HD9DCq_Oj0VO-37" style="edgeStyle=orthogonalEdgeStyle;rounded=0;orthogonalLoop=1;jettySize=auto;html=1;" edge="1" parent="1" source="Nh9t3Uf7HD9DCq_Oj0VO-24">
          <mxGeometry relative="1" as="geometry">
            <mxPoint x="560" y="640" as="targetPoint" />
          </mxGeometry>
        </mxCell>
        <mxCell id="Nh9t3Uf7HD9DCq_Oj0VO-24" value="" style="ellipse;whiteSpace=wrap;html=1;aspect=fixed;" vertex="1" parent="1">
          <mxGeometry x="555" y="590" width="10" height="10" as="geometry" />
        </mxCell>
        <mxCell id="Nh9t3Uf7HD9DCq_Oj0VO-30" value="" style="edgeStyle=orthogonalEdgeStyle;rounded=0;orthogonalLoop=1;jettySize=auto;html=1;" edge="1" parent="1" source="Nh9t3Uf7HD9DCq_Oj0VO-26" target="1Nd6ax76EJ901uyZsJ-i-31">
          <mxGeometry relative="1" as="geometry" />
        </mxCell>
        <mxCell id="Nh9t3Uf7HD9DCq_Oj0VO-35" style="edgeStyle=orthogonalEdgeStyle;rounded=0;orthogonalLoop=1;jettySize=auto;html=1;entryX=1;entryY=0.5;entryDx=0;entryDy=0;" edge="1" parent="1" source="Nh9t3Uf7HD9DCq_Oj0VO-26" target="Nh9t3Uf7HD9DCq_Oj0VO-31">
          <mxGeometry relative="1" as="geometry">
            <Array as="points">
              <mxPoint x="680" y="780" />
              <mxPoint x="680" y="915" />
            </Array>
          </mxGeometry>
        </mxCell>
        <mxCell id="Nh9t3Uf7HD9DCq_Oj0VO-26" value="i % 2 = 0" style="rhombus;whiteSpace=wrap;html=1;" vertex="1" parent="1">
          <mxGeometry x="490" y="740" width="140" height="60" as="geometry" />
        </mxCell>
        <mxCell id="Nh9t3Uf7HD9DCq_Oj0VO-28" value="True" style="text;html=1;align=center;verticalAlign=middle;whiteSpace=wrap;rounded=0;" vertex="1" parent="1">
          <mxGeometry x="559" y="710" width="60" height="30" as="geometry" />
        </mxCell>
        <mxCell id="Nh9t3Uf7HD9DCq_Oj0VO-34" value="" style="edgeStyle=orthogonalEdgeStyle;rounded=0;orthogonalLoop=1;jettySize=auto;html=1;" edge="1" parent="1" source="Nh9t3Uf7HD9DCq_Oj0VO-31" target="1Nd6ax76EJ901uyZsJ-i-60">
          <mxGeometry relative="1" as="geometry" />
        </mxCell>
        <mxCell id="Nh9t3Uf7HD9DCq_Oj0VO-31" value="" style="ellipse;whiteSpace=wrap;html=1;aspect=fixed;" vertex="1" parent="1">
          <mxGeometry x="555" y="910" width="10" height="10" as="geometry" />
        </mxCell>
        <mxCell id="Nh9t3Uf7HD9DCq_Oj0VO-52" style="edgeStyle=orthogonalEdgeStyle;rounded=0;orthogonalLoop=1;jettySize=auto;html=1;entryX=0.5;entryY=0;entryDx=0;entryDy=0;" edge="1" parent="1" source="Nh9t3Uf7HD9DCq_Oj0VO-45" target="1Nd6ax76EJ901uyZsJ-i-39">
          <mxGeometry relative="1" as="geometry" />
        </mxCell>
        <mxCell id="Nh9t3Uf7HD9DCq_Oj0VO-45" value="" style="ellipse;whiteSpace=wrap;html=1;aspect=fixed;" vertex="1" parent="1">
          <mxGeometry x="349" y="1070" width="10" height="10" as="geometry" />
        </mxCell>
        <mxCell id="Nh9t3Uf7HD9DCq_Oj0VO-51" style="edgeStyle=orthogonalEdgeStyle;rounded=0;orthogonalLoop=1;jettySize=auto;html=1;entryX=1;entryY=0.5;entryDx=0;entryDy=0;" edge="1" parent="1" source="Nh9t3Uf7HD9DCq_Oj0VO-46" target="Nh9t3Uf7HD9DCq_Oj0VO-45">
          <mxGeometry relative="1" as="geometry" />
        </mxCell>
        <mxCell id="Nh9t3Uf7HD9DCq_Oj0VO-46" value="" style="ellipse;whiteSpace=wrap;html=1;aspect=fixed;" vertex="1" parent="1">
          <mxGeometry x="710" y="1070" width="10" height="10" as="geometry" />
        </mxCell>
      </root>
    </mxGraphModel>
  </diagram>
</mxfile>
